PathFileType	4	(X/Y/Z)	s10c0303.trc
DataRate	CameraRate	NumFrames	NumMarkers	Units	OrigDataRate	OrigDataStartFrame	OrigNumFrames
200	200	4	50	mm	200	1000	2000
Frame#	Time	racr			lacr			c7			jug			rlel			rdr			llel			ldr			s2			lic			ric			lasi			rasi			rpsi			lpsi			rgt			lgt			rth1			rth2			rth3			rth4			rlfc			rmfc			rsh1			rsh2			rsh3			rsh4			rlmal			rmmal			rcal			rtoe			rmt5			lth1			lth2			lth4			lth3			llfc			lmfc			llmal			lmmal			lcal			lmt5			lsh1			lsh2			lsh3			lsh4			ltoe			SBIKE			LBIKE			RBIKE			
		X1	Y1	Z1	X2	Y2	Z2	X3	Y3	Z3	X4	Y4	Z4	X5	Y5	Z5	X6	Y6	Z6	X7	Y7	Z7	X8	Y8	Z8	X9	Y9	Z9	X10	Y10	Z10	X11	Y11	Z11	X12	Y12	Z12	X13	Y13	Z13	X14	Y14	Z14	X15	Y15	Z15	X16	Y16	Z16	X17	Y17	Z17	X18	Y18	Z18	X19	Y19	Z19	X20	Y20	Z20	X21	Y21	Z21	X22	Y22	Z22	X23	Y23	Z23	X24	Y24	Z24	X25	Y25	Z25	X26	Y26	Z26	X27	Y27	Z27	X28	Y28	Z28	X29	Y29	Z29	X30	Y30	Z30	X31	Y31	Z31	X32	Y32	Z32	X33	Y33	Z33	X34	Y34	Z34	X35	Y35	Z35	X36	Y36	Z36	X37	Y37	Z37	X38	Y38	Z38	X39	Y39	Z39	X40	Y40	Z40	X41	Y41	Z41	X42	Y42	Z42	X43	Y43	Z43	X44	Y44	Z44	X45	Y45	Z45	X46	Y46	Z46	X47	Y47	Z47	X48	Y48	Z48	X49	Y49	Z49	X50	Y50	Z50	
1000	5.0000	657.004252	1335.959197	-88.837792	688.474387	1295.813577	-372.412996	655.561586	1331.037004	-228.668676	654.978575	1193.493316	-211.759422	599.829283	1080.345778	13.305808	646.101588	872.755943	-56.689668	571.706798	1065.797805	-524.794672	642.812255	886.003242	-416.912602	117.905903	1156.613731	-191.026416	255.897850	1145.430161	-358.637684	315.970164	1137.268087	-79.501289	267.854085	1066.019960	-337.368976	317.069247	1056.567329	-86.844712	180.968353	1200.949818	-148.679086	166.138402	1215.960451	-257.125420	211.848196	1047.494390	-19.054498	129.489857	1039.869302	-388.544707	265.196723	903.144905	-3.714461	315.687079	832.634408	-24.260919	326.944814	748.265994	-27.583504	347.280880	848.702518	-36.356692	357.056357	644.001936	-43.211727	346.348912	636.818901	-158.187243	256.006957	585.779899	-9.549550	208.120043	512.092616	-24.293415	132.287663	471.634843	-28.249055	230.264915	493.355598	-50.072177	50.664321	404.495392	-43.065018	72.506388	400.089305	-124.767425	20.596981	448.033005	-90.917648	71.047622	208.711373	-105.999819	24.623829	275.300203	-39.432573	215.607319	942.677330	-413.228552	298.542339	916.861685	-412.200865	317.987734	946.673220	-403.857760	358.094334	851.058125	-415.644590	457.304639	784.473754	-406.405845	471.026372	773.487572	-285.495498	247.055260	454.467512	-392.571572	262.745304	458.714078	-312.427421	184.095760	434.767966	-347.296468	337.255689	344.295150	-405.684146	382.119296	683.722260	-430.603058	363.630028	599.059245	-417.109576	301.392977	535.666012	-412.274373	389.828833	588.987823	-391.679700	415.943796	358.459636	-352.224148	-217.245305	830.573193	-214.425335	-103.904718	80.636132	-418.374317	-103.892997	80.728452	-18.365793	
1001	5.0050	658.740823	1336.273753	-88.089112	686.653602	1295.681252	-371.771704	655.531050	1331.079019	-228.208929	654.172664	1193.481491	-210.962084	601.442316	1080.529515	14.142503	646.072068	872.853249	-56.703727	569.899054	1065.544868	-523.891150	642.600850	885.071677	-415.285403	118.051367	1156.644743	-193.627996	257.802231	1144.227606	-359.668936	313.966596	1137.851861	-79.717065	269.145705	1065.286583	-338.154899	313.724269	1056.661282	-88.895121	179.690303	1201.307094	-151.252381	166.596513	1215.434243	-259.604543	210.447140	1047.915487	-20.917712	129.828570	1039.561912	-390.021720	266.430179	904.810344	-4.987051	318.400101	835.246534	-24.976493	331.240328	751.167408	-28.361231	349.598607	851.965740	-36.759796	363.992987	647.414009	-43.958806	352.500618	642.209059	-159.010812	262.261202	589.900020	-9.906900	212.368862	517.750603	-25.096149	134.951734	479.510656	-29.091988	233.495021	498.944289	-51.494388	51.426567	414.608908	-43.360399	74.905239	410.028109	-124.486863	21.819573	458.425056	-90.948426	69.050824	218.459201	-106.071939	23.583834	285.979762	-39.547725	214.225178	940.090889	-415.025794	296.106472	911.400105	-412.908844	316.352619	940.276129	-403.743460	353.348437	843.546438	-415.672446	451.089812	771.963099	-405.435658	464.747000	761.656851	-285.618812	244.614599	440.187405	-392.340881	259.504486	444.975078	-311.866837	181.427341	418.986908	-347.086260	337.339604	333.277010	-405.735063	377.533852	669.846489	-430.237478	359.772008	585.463042	-416.415034	298.299338	521.136420	-411.724312	385.633528	575.831124	-389.894117	415.621933	350.050339	-352.487046	-217.201375	830.578764	-214.514311	-103.897782	80.633295	-418.395218	-103.908590	80.723272	-18.380117	
1002	5.0100	660.298668	1336.571545	-87.277256	684.812300	1295.723860	-371.166441	655.368523	1331.139086	-227.677851	653.617668	1193.473837	-210.120506	602.990214	1080.706339	15.219653	646.044668	872.949246	-56.707106	568.300735	1065.327143	-522.744289	642.789154	885.348659	-416.453993	118.354059	1156.488681	-196.475617	259.920887	1142.882370	-360.732051	312.026622	1138.131640	-80.058671	270.488034	1064.167987	-338.929840	312.552166	1056.794930	-89.655753	178.965139	1200.962067	-154.326500	167.227264	1214.585464	-262.064884	209.669152	1047.951882	-23.251604	130.200515	1038.865323	-391.284109	267.080166	906.181475	-6.107666	320.977027	837.727764	-25.646844	335.494031	754.062900	-28.988923	351.926711	855.304235	-37.025675	370.594306	650.854254	-44.525271	358.063794	647.383171	-160.055337	268.116956	594.125356	-10.568801	216.467830	523.281264	-25.825172	137.842102	487.401168	-29.447779	236.589837	504.435304	-52.885306	52.211276	425.065863	-43.685685	78.323366	420.455839	-123.922163	22.976994	469.019684	-91.205433	67.881619	228.815225	-106.055926	23.113098	296.850169	-39.580865	212.928074	937.010188	-416.538998	293.683189	905.429910	-413.506550	314.893730	933.673677	-404.527674	348.467941	835.601310	-415.596730	444.458398	759.128476	-404.180030	458.193443	749.496364	-285.928614	241.760398	425.913936	-391.897855	256.188020	431.181537	-310.958728	178.637850	403.428121	-346.749654	336.892122	322.044421	-405.786953	372.575055	656.295934	-430.167573	355.562244	571.214033	-414.712721	294.843316	506.426125	-410.912314	380.905711	562.513400	-387.980616	414.709862	341.054124	-352.637660	-217.180217	830.605468	-214.523383	-103.892216	80.613062	-418.364552	-103.906515	80.686341	-18.386188	
1003	5.0150	661.755887	1336.912077	-86.385250	683.009461	1295.888496	-370.649416	655.078200	1331.230177	-227.103854	653.549095	1193.479849	-209.243350	604.480803	1080.871858	16.462390	645.635811	873.347604	-56.939246	566.826358	1065.139619	-521.430932	642.552731	884.483473	-414.646429	118.405291	1155.728853	-198.608149	262.240745	1141.363573	-361.674968	310.143240	1138.275004	-80.381896	271.823814	1062.788809	-339.768417	311.467117	1056.569776	-90.692146	178.017408	1200.576589	-156.886300	168.058973	1213.241683	-264.262944	207.847289	1047.680819	-25.347583	130.802165	1037.801992	-392.597753	267.891642	907.659515	-7.254690	323.539357	840.478148	-26.018743	339.191577	756.882880	-29.506622	354.118687	858.310044	-37.362028	376.966381	654.235467	-44.868817	363.267198	652.300355	-160.769565	273.921527	598.382090	-11.015669	220.207268	529.143021	-26.635924	140.727049	495.379737	-29.629271	239.110542	510.356480	-54.233379	53.187290	435.818913	-43.978621	78.341272	429.707924	-125.296614	24.195043	480.037086	-91.920190	67.664332	239.456833	-106.204923	23.353034	307.777724	-39.664678	211.603634	933.630945	-417.982632	291.241065	899.031984	-414.008649	313.535548	926.603262	-405.295476	343.356718	827.371273	-415.331072	437.324685	746.060530	-402.863561	451.521729	736.920718	-285.766106	238.698008	411.887777	-391.541085	252.685911	418.640401	-310.684580	175.779102	389.319481	-347.862016	335.734730	310.864115	-405.855457	367.100683	641.361790	-428.205655	350.814160	557.045572	-413.147847	291.530228	490.865522	-409.080714	375.740071	549.015488	-385.750446	413.384850	332.369346	-353.230073	-217.136710	830.588417	-214.568262	-103.888879	80.601628	-418.373311	-103.910111	80.662331	-18.400522	
